<svg xmlns="http://www.w3.org/2000/svg" width="14" height="14" viewBox="0 0 14 14">
  <metadata><?xpacket begin="﻿" id="W5M0MpCehiHzreSzNTczkc9d"?>
<x:xmpmeta xmlns:x="adobe:ns:meta/" x:xmptk="Adobe XMP Core 5.6-c140 79.160451, 2017/05/06-01:08:21        ">
   <rdf:RDF xmlns:rdf="http://www.w3.org/1999/02/22-rdf-syntax-ns#">
      <rdf:Description rdf:about=""/>
   </rdf:RDF>
</x:xmpmeta>
                                                                                                    
                                                                                                    
                                                                                                    
                                                                                                    
                                                                                                    
                                                                                                    
                                                                                                    
                                                                                                    
                                                                                                    
                                                                                                    
                                                                                                    
                                                                                                    
                                                                                                    
                                                                                                    
                                                                                                    
                                                                                                    
                                                                                                    
                                                                                                    
                                                                                                    
                                                                                                    
                           
<?xpacket end="w"?></metadata>
<defs>
    <style>
      .cls-1 {
        fill: #009136;
        fill-rule: evenodd;
      }
    </style>
  </defs>
  <path id="phone-bg" class="cls-1" d="M64.472,1945.35a1.678,1.678,0,0,0-.756-0.53l-0.537-.3c-0.232-.12-0.443-0.24-0.632-0.35s-0.367-.2-0.532-0.3l-0.249-.18a2.649,2.649,0,0,0-.353-0.21,0.6,0.6,0,0,0-.283-0.07,0.81,0.81,0,0,0-.5.28,5.1,5.1,0,0,0-.547.62,6.414,6.414,0,0,1-.527.62,0.8,0.8,0,0,1-.458.28,0.763,0.763,0,0,1-.224-0.05c-0.089-.03-0.157-0.06-0.2-0.08s-0.126-.07-0.239-0.14-0.176-.11-0.189-0.12a10.315,10.315,0,0,1-2.337-1.73,10.428,10.428,0,0,1-1.731-2.34c-0.007-.01-0.045-0.07-0.114-0.19s-0.116-.19-0.139-0.23-0.051-.12-0.084-0.21a0.656,0.656,0,0,1-.05-0.22,0.772,0.772,0,0,1,.283-0.46,5.994,5.994,0,0,1,.617-0.53,4.324,4.324,0,0,0,.617-0.54,0.84,0.84,0,0,0,.283-0.5,0.624,0.624,0,0,0-.07-0.28,2.584,2.584,0,0,0-.214-0.36c-0.1-.14-0.154-0.22-0.174-0.25-0.1-.16-0.2-0.34-0.308-0.53s-0.222-.4-0.348-0.63-0.225-.41-0.3-0.54a1.7,1.7,0,0,0-.527-0.75,0.554,0.554,0,0,0-.209-0.03,4.521,4.521,0,0,0-1.383.31,2.655,2.655,0,0,0-1.054,1.21,3.847,3.847,0,0,0-.507,1.85,3.805,3.805,0,0,0,.035.52,4.188,4.188,0,0,0,.125.57c0.06,0.22.108,0.37,0.144,0.48s0.1,0.28.2,0.55,0.159,0.43.179,0.48a9.363,9.363,0,0,0,.825,1.75,15.232,15.232,0,0,0,2.143,2.63,14.774,14.774,0,0,0,2.631,2.14,9.394,9.394,0,0,0,1.74.83,4.589,4.589,0,0,1,.487.17l0.552,0.21c0.1,0.03.26,0.08,0.472,0.14a5.828,5.828,0,0,0,.572.13,4.443,4.443,0,0,0,.522.03,3.841,3.841,0,0,0,1.85-.51,2.665,2.665,0,0,0,1.213-1.05,3.974,3.974,0,0,0,.209-0.68,3.267,3.267,0,0,0,.1-0.7A0.545,0.545,0,0,0,64.472,1945.35Z" transform="translate(-50.5 -1934.5)"/>
</svg>
