<svg xmlns="http://www.w3.org/2000/svg" width="40" height="40.001" viewBox="0 0 40 40.001">
  <metadata><?xpacket begin="﻿" id="W5M0MpCehiHzreSzNTczkc9d"?>
<x:xmpmeta xmlns:x="adobe:ns:meta/" x:xmptk="Adobe XMP Core 5.6-c140 79.160451, 2017/05/06-01:08:21        ">
   <rdf:RDF xmlns:rdf="http://www.w3.org/1999/02/22-rdf-syntax-ns#">
      <rdf:Description rdf:about=""/>
   </rdf:RDF>
</x:xmpmeta>
                                                                                                    
                                                                                                    
                                                                                                    
                                                                                                    
                                                                                                    
                                                                                                    
                                                                                                    
                                                                                                    
                                                                                                    
                                                                                                    
                                                                                                    
                                                                                                    
                                                                                                    
                                                                                                    
                                                                                                    
                                                                                                    
                                                                                                    
                                                                                                    
                                                                                                    
                                                                                                    
                           
<?xpacket end="w"?></metadata>
<defs>
    <style>
      .cls-1 {
        fill: #fff;
        fill-rule: evenodd;
      }
    </style>
  </defs>
  <path id="youtube" class="cls-1" d="M1341.42,1021.64h1.45v7.2h1.4v-7.2h1.44v-1.22h-4.29v1.22Zm8.59-5.98a0.688,0.688,0,0,0,.46-0.15,0.573,0.573,0,0,0,.16-0.43v-3.73a0.419,0.419,0,0,0-.17-0.36,0.64,0.64,0,0,0-.45-0.14,0.569,0.569,0,0,0-.41.14,0.438,0.438,0,0,0-.16.36v3.73a0.592,0.592,0,0,0,.15.43A0.568,0.568,0,0,0,1350.01,1015.66Zm3.09,6.89a1.214,1.214,0,0,0-.57.15,1.763,1.763,0,0,0-.53.43v-2.71h-1.26v8.42H1352v-0.48a1.5,1.5,0,0,0,.53.43,1.451,1.451,0,0,0,.65.13,1.043,1.043,0,0,0,.84-0.35,1.578,1.578,0,0,0,.29-1.01v-3.45a1.824,1.824,0,0,0-.31-1.16A1.069,1.069,0,0,0,1353.1,1022.55Zm-0.07,4.84a0.641,0.641,0,0,1-.11.42,0.4,0.4,0,0,1-.33.14,0.775,0.775,0,0,1-.3-0.07,0.828,0.828,0,0,1-.29-0.22v-3.87a0.829,0.829,0,0,1,.25-0.19,0.651,0.651,0,0,1,.26-0.06,0.472,0.472,0,0,1,.39.16,0.742,0.742,0,0,1,.13.48v3.21Zm-4.47-.04a1.7,1.7,0,0,1-.38.33,0.69,0.69,0,0,1-.35.13,0.292,0.292,0,0,1-.25-0.1,0.515,0.515,0,0,1-.08-0.32v-4.76h-1.24v5.19a1.336,1.336,0,0,0,.22.84,0.776,0.776,0,0,0,.65.27,1.551,1.551,0,0,0,.72-0.19,2.876,2.876,0,0,0,.71-0.58v0.68h1.25v-6.21h-1.25v4.72Zm1.4-27.4a20.008,20.008,0,1,0,20.01,20.006A20.008,20.008,0,0,0,1349.96,999.954Zm3.23,9.876h1.4v5.25a0.526,0.526,0,0,0,.09.35,0.318,0.318,0,0,0,.28.11,0.769,0.769,0,0,0,.39-0.14,1.877,1.877,0,0,0,.43-0.37v-5.2h1.4v6.85h-1.4v-0.76a2.75,2.75,0,0,1-.8.64,1.828,1.828,0,0,1-.81.22,0.852,0.852,0,0,1-.73-0.31,1.4,1.4,0,0,1-.25-0.92v-5.72Zm-5.19,1.57a1.6,1.6,0,0,1,.56-1.27,2.339,2.339,0,0,1,1.52-.47,2.094,2.094,0,0,1,1.43.5,1.67,1.67,0,0,1,.55,1.28v3.53a1.778,1.778,0,0,1-.54,1.38,2.173,2.173,0,0,1-1.5.5,2.087,2.087,0,0,1-1.47-.51,1.816,1.816,0,0,1-.55-1.39v-3.55Zm-3.81-4,1.02,3.71h0.1l0.98-3.71h1.6l-1.84,5.43v3.85h-1.57V1013l-1.87-5.6h1.58Zm18.31,19.53a4.479,4.479,0,0,1-4.48,4.48h-15.58a4.479,4.479,0,0,1-4.48-4.48v-3.61a4.479,4.479,0,0,1,4.48-4.48h15.58a4.479,4.479,0,0,1,4.48,4.48v3.61Zm-5.65-4.46a1.864,1.864,0,0,0-1.36.51,1.763,1.763,0,0,0-.53,1.32v2.79a1.976,1.976,0,0,0,.48,1.41,1.725,1.725,0,0,0,1.32.51,1.846,1.846,0,0,0,1.39-.48,2,2,0,0,0,.47-1.44v-0.32h-1.28v0.28a1.325,1.325,0,0,1-.12.71,0.518,0.518,0,0,1-.43.16,0.5,0.5,0,0,1-.43-0.18,1.413,1.413,0,0,1-.12-0.69v-1.17h2.38v-1.58a1.867,1.867,0,0,0-.46-1.36A1.748,1.748,0,0,0,1356.85,1022.47Zm0.49,2.45h-1.1v-0.63a0.906,0.906,0,0,1,.13-0.56,0.522,0.522,0,0,1,.43-0.17,0.493,0.493,0,0,1,.41.17,0.906,0.906,0,0,1,.13.56v0.63Z" transform="translate(-1329.97 -999.969)"/>
</svg>
